<?xml version="1.0" standalone="no"?>
<!DOCTYPE svg PUBLIC "-//W3C//DTD SVG 20010904//EN"
 "http://www.w3.org/TR/2001/REC-SVG-20010904/DTD/svg10.dtd">
<svg version="1.0" xmlns="http://www.w3.org/2000/svg"
 width="711.000000pt" height="744.000000pt" viewBox="0 0 711.000000 744.000000"
 preserveAspectRatio="xMidYMid meet">

<g transform="translate(0.000000,744.000000) scale(0.100000,-0.100000)"
fill="#000000" stroke="none">
<path d="M555 7260 c-89 -13 -134 -30 -197 -73 -70 -48 -140 -141 -159 -210
-26 -96 -29 -202 -29 -1078 0 -954 -1 -939 41 -939 10 0 59 -20 111 -44 51
-24 104 -47 118 -51 14 -4 44 -21 67 -36 23 -16 44 -29 46 -29 5 0 122 -79
198 -133 112 -79 347 -303 395 -376 39 -59 73 -123 73 -139 2 -33 54 -121 96
-161 l46 -44 26 24 c22 20 70 80 121 150 8 9 18 66 24 126 5 59 13 112 18 118
16 19 52 176 47 203 -2 15 -11 41 -18 59 -11 28 -11 34 4 51 16 17 16 22 3 54
-10 23 -14 62 -12 119 3 88 -16 202 -37 229 -23 27 -41 74 -43 115 -5 85 -22
181 -37 210 -9 17 -23 74 -32 128 -9 53 -21 110 -27 125 -6 15 -17 72 -24 127
-11 91 -11 145 1 410 3 44 6 148 8 230 3 164 20 226 74 277 47 44 204 25 353
-43 69 -32 240 -141 306 -197 73 -60 146 -117 206 -160 34 -24 70 -54 80 -68
11 -13 26 -31 34 -38 8 -8 14 -19 14 -24 0 -6 3 -12 8 -14 4 -2 17 -21 28 -43
12 -22 54 -66 93 -99 39 -32 87 -81 106 -110 69 -104 91 -130 123 -148 18 -10
37 -16 42 -13 5 3 24 8 42 10 31 4 68 -16 68 -37 0 -31 111 -78 135 -58 8 7
19 9 24 6 5 -4 12 -2 16 4 8 14 65 13 65 -1 0 -8 4 -8 13 -1 6 5 32 15 57 22
25 6 54 20 66 31 11 11 23 16 27 13 3 -4 21 1 40 9 48 23 184 11 244 -21 12
-7 32 -12 45 -12 13 0 31 -7 42 -15 10 -8 38 -17 61 -21 35 -5 49 -2 78 18 46
31 87 82 102 126 12 33 20 39 73 58 66 22 121 60 149 100 10 14 34 46 53 72
36 48 80 141 93 197 3 11 8 27 11 36 8 19 -45 46 -129 66 -92 22 -475 29 -685
12 -96 -7 -178 -12 -183 -11 -4 1 -76 -2 -160 -7 -202 -13 -367 4 -401 41 -27
28 -37 63 -41 136 -2 29 -5 56 -9 59 -3 3 -1 14 4 23 7 13 5 21 -4 29 -14 11
-32 150 -27 198 1 13 -1 28 -5 35 -4 7 -9 21 -10 32 -16 172 -39 313 -52 324
-14 11 -14 12 1 12 9 0 17 4 17 8 0 31 -22 32 -1044 31 -562 -1 -1043 -5
-1071 -9z" />
<path d="M5658 7263 c0 -4 -2 -12 -3 -18 -2 -5 -3 -14 -4 -20 -1 -5 -1 -118
-1 -250 1 -312 21 -660 50 -865 6 -41 14 -138 19 -215 5 -77 12 -167 15 -200
4 -33 11 -154 16 -270 9 -173 31 -542 54 -895 3 -36 8 -110 11 -165 4 -55 13
-114 20 -132 15 -36 25 -39 170 -47 140 -8 395 -45 446 -65 15 -5 29 -8 31 -5
3 2 23 -5 46 -16 22 -11 60 -20 84 -20 24 -1 61 -7 83 -15 22 -8 54 -15 70
-15 17 0 35 -4 40 -9 12 -10 103 -41 122 -41 11 0 13 243 13 1383 0 817 -4
1419 -10 1474 -5 50 -19 115 -30 145 -40 106 -143 201 -259 240 -63 21 -84 22
-523 26 -252 2 -459 0 -460 -5z"/>
<path d="M4990 6319 c12 -9 11 -10 -7 -6 -24 5 -35 -19 -37 -83 -1 -28 -5 -36
-23 -38 -13 -2 -23 -8 -23 -13 0 -6 9 -8 19 -4 11 3 22 1 26 -5 3 -5 13 -10
22 -10 12 0 14 7 10 29 -3 15 -1 33 5 39 9 9 7 17 -7 32 -16 18 -16 20 -2 20
9 0 21 8 26 19 11 19 5 31 -13 31 -6 0 -4 -5 4 -11z"/>
<path d="M4810 6300 c-8 -5 -12 -11 -9 -14 2 -3 11 -1 19 4 8 5 12 11 9 14 -2
3 -11 1 -19 -4z"/>
<path d="M5113 6293 c-28 -5 -31 -39 -4 -46 24 -6 37 2 45 31 8 23 5 24 -41
15z"/>
<path d="M4880 6250 c0 -5 7 -10 15 -10 8 0 15 5 15 10 0 6 -7 10 -15 10 -8 0
-15 -4 -15 -10z"/>
<path d="M5059 6232 c-1 -9 -1 -21 0 -26 1 -5 -4 -13 -10 -17 -10 -6 -10 -11
1 -24 12 -15 12 -18 -3 -26 -9 -6 -17 -15 -17 -20 0 -6 5 -7 10 -4 6 3 10 1
10 -4 0 -19 -31 -12 -62 15 -17 14 -40 24 -52 23 -12 -2 -31 3 -44 10 -13 7
-28 10 -35 7 -9 -3 -9 -5 1 -5 28 -2 9 -20 -28 -26 -44 -7 -71 2 -49 16 11 7
10 9 -4 9 -10 0 -35 -16 -55 -35 -30 -29 -34 -37 -22 -44 10 -7 3 -9 -23 -7
-24 2 -37 -1 -37 -9 0 -7 -7 -18 -15 -25 -9 -7 -14 -19 -11 -27 3 -8 -1 -25
-10 -38 -15 -23 -14 -23 8 -17 13 3 28 10 34 16 6 6 23 20 38 31 34 25 59 72
42 79 -6 2 -5 5 4 5 8 0 22 -3 30 -9 12 -8 12 -10 -3 -16 -23 -9 -21 -20 6
-29 20 -7 19 -8 -10 -12 -32 -4 -44 -25 -22 -38 6 -4 8 -14 5 -22 -5 -12 5
-14 53 -12 46 2 64 -2 85 -18 l26 -21 -31 -11 c-18 -6 -40 -11 -50 -11 -11 0
-19 -4 -19 -9 0 -5 -18 -18 -40 -27 -25 -11 -37 -21 -31 -27 15 -15 68 11 76
36 4 14 8 17 12 10 2 -8 23 -13 46 -13 36 -1 39 -2 22 -12 -17 -10 -18 -12 -2
-17 15 -5 11 -13 -23 -49 -22 -24 -44 -41 -50 -37 -10 6 -37 -19 -94 -89 -17
-21 -37 -44 -43 -51 -7 -8 -13 -21 -13 -29 0 -20 29 -21 36 -1 4 8 15 15 25
15 11 0 32 18 49 42 16 22 30 36 30 30 0 -7 5 -12 10 -12 6 0 10 4 10 10 0 15
33 50 47 50 7 0 12 3 12 8 -4 21 2 42 10 38 5 -4 11 -1 13 6 2 6 9 8 16 4 8
-5 5 -17 -12 -44 -13 -20 -26 -48 -31 -62 -4 -14 -13 -34 -19 -45 -7 -11 -16
-34 -19 -51 -3 -17 -31 -82 -61 -145 -30 -63 -51 -116 -45 -117 5 -2 23 8 40
22 17 14 35 26 41 26 15 0 2 -57 -17 -76 -10 -10 -12 -25 -8 -47 8 -39 19 -48
58 -45 23 2 34 11 45 35 16 34 40 44 40 18 0 -23 51 -116 61 -110 10 7 29 -27
29 -54 0 -10 6 -21 12 -23 29 -10 41 28 47 144 1 12 6 15 18 11 11 -4 14 -3 9
5 -4 7 -3 12 3 12 5 0 12 13 16 29 9 42 30 57 60 43 15 -7 25 -8 25 -2 0 6 6
10 14 10 11 0 14 15 11 73 -4 113 2 142 34 153 27 11 51 63 51 114 0 13 5 39
12 57 10 27 10 36 0 42 -12 7 -12 20 2 134 4 35 2 39 -30 54 -19 9 -34 21 -34
25 0 5 4 7 9 4 5 -3 11 0 14 8 3 8 -7 18 -29 26 -34 14 -36 18 -37 75 0 27 2
30 34 30 27 1 35 5 37 22 2 16 -4 21 -34 26 -21 4 -43 2 -50 -4 -7 -5 -30 -7
-54 -3 -41 7 -42 8 -36 39 4 17 3 34 0 38 -11 11 -34 -13 -34 -35 0 -10 -5
-16 -10 -13 -11 7 -9 42 3 61 4 7 0 14 -8 18 -10 3 -15 -1 -16 -12z m-282
-118 c-3 -3 -12 -4 -19 -1 -8 3 -5 6 6 6 11 1 17 -2 13 -5z m70 -696 c-3 -8
-6 -5 -6 6 -1 11 2 17 5 13 3 -3 4 -12 1 -19z"/>
<path d="M4736 6185 c-3 -8 -12 -12 -21 -9 -9 4 -25 -2 -35 -11 -22 -20 -26
-35 -10 -35 6 0 10 6 10 14 0 17 38 28 43 12 5 -15 37 11 37 30 0 19 -16 18
-24 -1z"/>
<path d="M1683 5929 c-51 -32 -42 -52 12 -27 14 6 25 19 25 30 0 22 2 22 -37
-3z"/>
<path d="M1901 5890 c-9 -5 -8 -9 5 -14 9 -4 21 -3 26 2 12 12 -15 23 -31 12z"/>
<path d="M1787 5869 c-9 -5 -21 -7 -27 -4 -5 3 -14 -4 -20 -16 -9 -16 -18 -19
-37 -14 -14 3 -22 2 -19 -4 12 -18 -7 -42 -46 -60 -36 -16 -38 -19 -18 -24 13
-3 19 -10 15 -17 -4 -6 -1 -17 5 -25 10 -12 9 -20 -5 -41 -15 -23 -15 -28 -1
-48 8 -13 18 -39 21 -60 4 -20 12 -36 17 -36 6 0 8 -17 6 -39 -3 -37 -1 -41
34 -61 45 -25 91 -78 84 -96 -3 -7 4 -20 14 -27 11 -8 17 -16 14 -20 -3 -3 3
-12 15 -19 12 -7 21 -18 21 -24 0 -7 7 -15 16 -18 8 -3 13 -9 10 -14 -2 -4 -1
-14 4 -22 5 -8 5 -19 -1 -26 -6 -8 2 -20 26 -38 25 -19 39 -41 48 -73 8 -33
18 -48 37 -55 16 -6 26 -6 28 1 2 6 15 11 28 11 27 0 32 15 9 24 -26 10 -16
26 15 26 20 0 30 5 30 15 0 8 11 17 25 21 16 4 25 13 25 25 0 20 39 35 65 25
8 -3 15 -1 15 4 0 6 -4 10 -9 10 -5 0 -8 18 -6 39 2 27 -1 41 -11 45 -8 3 -14
10 -14 16 0 6 -11 26 -24 43 -14 18 -28 44 -31 60 -4 15 -11 30 -16 33 -17 10
-9 19 19 21 15 1 33 -4 40 -9 7 -6 14 -9 16 -7 7 6 -45 60 -109 114 -33 28
-76 68 -97 90 l-37 40 45 8 c31 5 51 4 60 -4 9 -7 14 -8 14 -1 0 11 -70 47
-113 58 -16 3 -34 15 -40 25 -7 11 -17 19 -24 19 -7 0 -16 6 -20 14 -4 7 -35
20 -68 29 l-60 16 90 2 c52 1 71 4 46 6 -25 3 -54 11 -65 19 l-21 15 22 -3
c12 -2 22 0 23 5 1 31 -2 37 -22 37 -13 0 -31 -5 -41 -11z m50 -15 c-3 -3 -12
-4 -19 -1 -8 3 -5 6 6 6 11 1 17 -2 13 -5z m-157 -124 c0 -5 -7 -7 -15 -4 -8
4 -15 8 -15 10 0 2 7 4 15 4 8 0 15 -4 15 -10z"/>
<path d="M4636 5715 c-4 -13 -2 -14 14 -5 23 13 26 20 6 20 -8 0 -16 -7 -20
-15z"/>
<path d="M3437 5693 c-3 -4 -3 -24 -2 -43 2 -19 -1 -38 -7 -41 -5 -4 -3 -9 6
-12 21 -8 38 25 34 65 -3 30 -21 48 -31 31z"/>
<path d="M4400 5651 c0 -5 7 -12 16 -15 22 -9 24 -8 24 9 0 8 -9 15 -20 15
-11 0 -20 -4 -20 -9z"/>
<path d="M4575 5650 c-3 -5 -1 -10 4 -10 6 0 11 5 11 10 0 6 -2 10 -4 10 -3 0
-8 -4 -11 -10z"/>
<path d="M3198 5612 c-23 -14 -31 -15 -48 -4 -18 11 -24 10 -40 -10 -11 -13
-19 -29 -20 -35 0 -18 -30 -16 -30 2 0 16 -5 17 -33 6 -18 -7 -18 -8 1 -31 16
-19 23 -22 34 -13 9 8 19 9 28 3 13 -8 12 -10 -2 -10 -13 0 -16 -7 -11 -34 3
-19 1 -36 -6 -40 -6 -4 -11 -16 -11 -27 0 -12 -5 -19 -12 -16 -7 2 -12 11 -10
21 2 9 -3 16 -10 16 -9 0 -9 3 2 10 13 9 13 11 0 20 -17 11 -50 13 -50 3 0 -3
7 -15 17 -25 14 -16 14 -22 3 -43 -18 -34 -34 -31 -26 5 4 22 2 30 -9 30 -7 0
-16 -4 -20 -9 -7 -13 -48 -10 -57 4 -5 6 -8 4 -8 -6 0 -11 -13 -18 -40 -23
-36 -6 -40 -9 -40 -36 l0 -29 25 24 c29 30 55 32 55 5 0 -11 -7 -20 -15 -20
-23 0 -18 -26 10 -48 21 -17 22 -22 11 -37 -9 -13 -15 -15 -20 -7 -10 16 -26
15 -26 -1 0 -27 32 -77 62 -98 25 -18 34 -20 49 -11 17 11 18 10 8 -15 -6 -15
-15 -31 -21 -34 -8 -5 -6 -12 4 -23 14 -14 20 -11 62 29 27 27 51 42 60 39 8
-3 19 3 26 15 6 12 17 21 25 21 8 0 22 16 30 37 14 33 14 38 -1 55 -10 10 -26
18 -37 18 -20 0 -20 0 1 20 12 11 25 20 29 19 25 -4 43 3 43 17 0 9 6 14 13
11 8 -2 11 -19 9 -45 -3 -36 -1 -41 13 -36 13 5 15 14 10 43 -4 20 -12 39 -18
43 -20 12 22 49 49 42 15 -4 24 -2 24 5 0 6 7 11 15 11 8 0 15 5 15 10 0 6 6
10 14 10 11 0 14 -11 13 -41 -2 -41 22 -74 40 -55 4 4 0 12 -10 17 -9 6 -17
19 -17 30 0 11 5 17 10 14 6 -3 10 3 10 14 0 25 14 34 41 26 14 -5 18 -12 13
-23 -13 -30 -10 -65 6 -69 13 -4 13 -3 0 6 -13 9 -13 14 3 41 10 16 15 35 11
41 -4 7 -1 10 7 7 8 -2 15 -17 17 -31 2 -15 7 -27 11 -27 9 0 71 108 71 123 0
7 4 6 10 -3 7 -12 12 -11 28 8 11 12 26 22 34 22 8 0 20 12 27 27 11 23 10 29
-5 40 -16 12 -20 8 -39 -30 -14 -27 -29 -43 -43 -45 -12 -2 -22 -8 -22 -14 0
-5 -6 -8 -12 -5 -37 15 -53 19 -39 9 10 -7 4 -11 -23 -14 -25 -3 -35 0 -32 8
6 15 -14 34 -36 34 -21 0 -24 20 -6 38 9 9 8 12 -5 12 -9 0 -20 -6 -24 -14 -5
-9 -18 -12 -35 -9 -32 6 -37 19 -10 27 9 3 2 4 -16 2 -18 -1 -37 3 -43 11 -14
16 -27 15 -61 -5z m-9 -106 c-22 -23 -39 -26 -39 -5 0 5 6 9 14 9 7 0 19 7 26
15 7 9 15 13 18 11 2 -3 -6 -16 -19 -30z m-15 -47 c-7 -11 -34 -12 -34 -1 0
14 11 21 26 15 8 -3 11 -9 8 -14z m166 0 c0 -5 -4 -9 -10 -9 -5 0 -10 7 -10
16 0 8 5 12 10 9 6 -3 10 -10 10 -16z m-410 -94 c0 -15 -6 -25 -14 -25 -19 0
-27 25 -13 39 18 18 27 13 27 -14z m37 -100 c-1 -25 -3 -31 -10 -20 -7 13 -2
55 8 55 2 0 3 -16 2 -35z"/>
<path d="M3560 5615 c0 -12 -6 -16 -18 -13 -12 3 -18 -1 -19 -12 -1 -13 5 -16
24 -14 38 4 56 41 25 52 -7 2 -12 -4 -12 -13z"/>
<path d="M3670 5615 c0 -8 2 -15 4 -15 2 0 6 7 10 15 3 8 1 15 -4 15 -6 0 -10
-7 -10 -15z"/>
<path d="M4113 5623 c-15 -5 -17 -23 -4 -23 5 0 11 7 15 15 3 8 4 15 3 14 -1
0 -8 -3 -14 -6z"/>
<path d="M4440 5600 c0 -5 5 -10 10 -10 6 0 10 5 10 10 0 6 -4 10 -10 10 -5 0
-10 -4 -10 -10z"/>
<path d="M3550 5550 c0 -5 5 -10 10 -10 6 0 10 5 10 10 0 6 -4 10 -10 10 -5 0
-10 -4 -10 -10z"/>
<path d="M4215 5550 c-3 -6 1 -7 9 -4 18 7 21 14 7 14 -6 0 -13 -4 -16 -10z"/>
<path d="M3680 5528 c-12 -13 -26 -31 -32 -41 -9 -18 -9 -18 18 0 26 16 27 17
21 1 -10 -27 10 -31 35 -9 12 12 25 21 29 21 4 0 9 7 12 15 5 11 1 12 -19 4
-30 -11 -45 -4 -37 16 8 21 -3 18 -27 -7z"/>
<path d="M4010 5495 c-8 -9 -8 -15 -2 -15 12 0 26 19 19 26 -2 2 -10 -2 -17
-11z"/>
<path d="M3583 5482 c-13 -10 -21 -25 -18 -37 2 -11 4 -22 4 -24 3 -13 51 45
51 61 0 22 -9 22 -37 0z"/>
<path d="M3723 5461 c-33 -16 -39 -34 -26 -68 6 -15 8 -13 13 12 4 21 12 31
30 35 14 3 26 14 28 23 4 20 -2 20 -45 -2z"/>
<path d="M4128 5430 c-27 -23 -22 -25 22 -6 24 9 28 15 17 19 -9 3 -26 -3 -39
-13z"/>
<path d="M5278 5393 c0 -10 0 -26 0 -36 1 -10 -3 -15 -8 -12 -14 9 -12 -7 4
-27 16 -22 30 -23 46 -3 10 12 15 12 36 -2 18 -11 24 -24 24 -49 0 -39 29 -50
31 -11 1 46 9 62 41 90 l33 28 -50 -6 c-28 -4 -56 -14 -62 -23 -11 -14 -13
-12 -13 11 0 24 -3 27 -25 21 -21 -5 -25 -3 -25 15 0 25 -29 29 -32 4z"/>
<path d="M3282 5352 c-7 -14 -12 -36 -12 -49 0 -15 -6 -23 -17 -23 -17 -1 -17
-1 0 -11 19 -11 47 8 47 34 0 8 7 20 15 27 19 16 19 23 -3 36 -15 10 -20 7
-30 -14z"/>
<path d="M3747 5340 c-9 -11 -13 -20 -9 -20 10 1 42 26 42 34 0 12 -16 6 -33
-14z"/>
<path d="M3682 5329 c-7 -11 -11 -23 -9 -25 7 -7 29 24 25 36 -2 6 -9 1 -16
-11z"/>
<path d="M4270 5330 c-9 -6 -10 -10 -3 -10 6 0 15 5 18 10 8 12 4 12 -15 0z"/>
<path d="M3950 5280 c-8 -5 -10 -10 -5 -10 6 0 17 5 25 10 8 5 11 10 5 10 -5
0 -17 -5 -25 -10z"/>
<path d="M3910 5245 c-7 -9 -8 -15 -2 -15 5 0 12 7 16 15 3 8 4 15 2 15 -2 0
-9 -7 -16 -15z"/>
<path d="M4303 5213 c9 -2 23 -2 30 0 6 3 -1 5 -18 5 -16 0 -22 -2 -12 -5z"/>
<path d="M2802 5199 c2 -7 10 -15 17 -17 8 -3 12 1 9 9 -2 7 -10 15 -17 17 -8
3 -12 -1 -9 -9z"/>
<path d="M4344 5189 c-7 -11 12 -29 31 -29 6 0 3 5 -5 10 -13 9 -13 11 0 20
13 8 13 10 -2 10 -9 0 -20 -5 -24 -11z"/>
<path d="M2893 5123 c-15 -5 -17 -39 -4 -47 5 -3 12 6 15 20 8 30 6 33 -11 27z"/>
<path d="M1870 5086 c0 -8 5 -18 10 -21 6 -3 10 3 10 14 0 12 -4 21 -10 21 -5
0 -10 -6 -10 -14z"/>
<path d="M1676 5054 c-18 -13 -16 -14 28 -14 26 0 61 -7 77 -16 38 -19 50 -10
23 16 -25 26 -102 34 -128 14z"/>
<path d="M3676 4971 c-4 -5 3 -7 14 -4 23 6 26 13 6 13 -8 0 -17 -4 -20 -9z"/>
<path d="M3690 4939 c0 -5 5 -7 10 -4 6 3 10 8 10 11 0 2 -4 4 -10 4 -5 0 -10
-5 -10 -11z"/>
<path d="M3645 4891 c-18 -11 -32 -29 -38 -50 -4 -18 -21 -44 -38 -58 -16 -14
-29 -31 -29 -39 0 -8 -8 -14 -17 -14 -15 0 -16 -2 -3 -10 17 -11 16 -12 -35
-29 -22 -7 -50 -22 -61 -33 -14 -13 -24 -16 -28 -9 -11 17 -31 -8 -31 -39 0
-32 21 -60 45 -60 10 0 18 -6 17 -12 -1 -35 4 -47 17 -42 7 3 30 -2 51 -10 21
-9 51 -16 67 -16 17 0 44 -6 61 -14 18 -8 40 -17 51 -20 11 -4 16 -12 12 -22
-4 -10 0 -15 12 -13 9 1 22 0 27 -1 10 -3 88 -8 150 -10 17 -1 53 3 80 8 41 8
44 10 20 12 -22 2 -16 5 22 10 77 11 105 19 98 29 -5 9 53 41 74 41 6 0 11 5
11 10 0 6 13 10 29 10 15 0 45 11 65 25 20 14 43 25 51 25 28 0 15 25 -23 45
-20 11 -37 25 -37 32 0 7 -19 26 -42 43 -24 18 -43 37 -43 43 0 12 -85 57
-107 57 -6 0 -13 6 -16 13 -3 7 -32 21 -66 32 -33 10 -58 21 -56 26 6 9 -27
16 -108 24 -42 4 -67 1 -90 -10 -41 -21 -113 -32 -103 -17 4 7 15 12 24 12 14
0 14 2 3 9 -11 7 -10 11 5 19 10 6 17 12 14 15 -3 2 -18 -3 -35 -12z m236
-204 c-13 -13 -26 -3 -16 12 3 6 11 8 17 5 6 -4 6 -10 -1 -17z m-421 -27 c0
-5 -4 -10 -10 -10 -5 0 -10 5 -10 10 0 6 5 10 10 10 6 0 10 -4 10 -10z m625
-60 c-3 -5 -10 -10 -16 -10 -5 0 -9 5 -9 10 0 6 7 10 16 10 8 0 12 -4 9 -10z
m15 -20 c0 -5 -4 -10 -10 -10 -5 0 -10 5 -10 10 0 6 5 10 10 10 6 0 10 -4 10
-10z m-27 -137 c-7 -2 -19 -2 -25 0 -7 3 -2 5 12 5 14 0 19 -2 13 -5z"/>
<path d="M2245 4740 c-3 -4 -34 -11 -70 -15 -36 -3 -65 -10 -65 -15 0 -4 -16
-11 -35 -14 -19 -4 -35 -13 -35 -20 0 -7 -12 -18 -26 -24 -14 -7 -22 -17 -19
-22 3 -6 0 -10 -7 -10 -9 0 -9 -3 2 -10 13 -9 13 -12 -1 -20 -11 -6 -15 -18
-12 -34 4 -17 -1 -28 -15 -37 -15 -10 -18 -17 -12 -30 7 -13 5 -18 -10 -22
-25 -7 -26 -23 -1 -37 11 -5 22 -23 26 -39 3 -16 13 -35 21 -42 21 -17 18 -25
-26 -87 -22 -31 -49 -85 -60 -121 -18 -55 -19 -73 -10 -117 7 -31 9 -102 6
-173 -4 -69 -2 -122 3 -125 9 -6 0 -55 -16 -96 -13 -33 -11 -40 10 -36 12 2
17 1 10 -1 -7 -2 -10 -10 -7 -17 3 -8 -2 -16 -11 -20 -10 -3 -15 -12 -11 -21
5 -15 -14 -40 -36 -47 -6 -2 -8 -10 -4 -16 10 -17 26 -15 26 3 0 8 5 15 10 15
17 0 11 -22 -11 -47 -19 -19 -20 -25 -9 -38 11 -14 9 -20 -13 -43 l-27 -27 0
27 c0 15 -3 29 -8 32 -11 7 -78 -51 -69 -60 4 -5 12 -2 16 5 6 9 9 4 9 -14 0
-20 -3 -24 -10 -14 -7 10 -8 6 -3 -11 3 -14 8 -50 10 -81 1 -32 11 -68 20 -83
10 -14 15 -35 12 -46 -3 -11 -1 -23 4 -26 5 -3 9 0 9 6 0 6 5 8 10 5 7 -4 7
-12 0 -25 -14 -26 -13 -53 3 -47 6 2 12 9 12 14 0 39 54 -1 55 -40 0 -10 12
-22 26 -27 23 -9 26 -15 20 -40 -4 -22 -2 -30 9 -30 21 0 45 -40 45 -77 0 -26
5 -34 24 -39 14 -3 32 -14 42 -25 9 -10 21 -16 25 -13 5 3 6 -1 4 -8 -6 -15
37 -58 58 -58 7 0 18 -9 25 -21 10 -15 20 -19 37 -15 19 5 25 0 38 -32 9 -20
16 -29 16 -19 1 17 14 21 58 18 11 -1 24 3 28 9 3 5 11 7 17 4 6 -4 14 0 19 7
6 11 10 9 16 -6 9 -23 24 -29 73 -29 22 -1 41 -8 52 -21 15 -19 17 -19 35 -2
31 27 50 22 45 -12 -3 -26 0 -30 32 -42 23 -8 36 -19 36 -31 0 -14 5 -17 24
-12 13 3 27 1 31 -5 3 -6 11 -9 16 -5 5 3 16 0 24 -6 8 -7 22 -10 30 -6 11 4
15 -2 15 -25 0 -28 1 -29 23 -15 14 10 27 12 36 7 8 -5 20 -7 28 -4 7 3 13 0
13 -6 0 -6 7 -11 16 -11 12 0 15 -7 12 -31 -4 -26 -2 -30 14 -26 11 3 18 0 18
-8 0 -19 20 -29 32 -17 18 18 46 1 52 -33 7 -37 36 -98 36 -77 0 7 -7 29 -15
49 -17 41 -21 98 -5 73 8 -12 11 -13 19 -1 6 9 11 10 15 2 5 -8 11 -7 20 2 8
6 12 15 10 19 -2 4 5 10 17 13 19 6 19 8 5 24 -9 10 -13 21 -9 24 3 4 1 7 -7
7 -9 0 -9 4 -2 13 7 8 6 17 -3 30 -8 12 -15 14 -20 8 -3 -6 -1 -11 4 -11 14 0
14 -27 0 -36 -12 -7 -31 15 -26 31 2 5 -3 17 -12 25 -13 13 -35 17 -128 20
-13 0 -23 6 -23 13 0 29 13 57 27 57 11 0 11 4 2 23 -6 12 -13 23 -14 25 -1 1
-16 -5 -34 -14 -17 -9 -39 -13 -48 -10 -14 6 -14 8 3 25 10 10 26 16 34 14 8
-2 42 3 74 11 38 10 63 12 71 6 12 -10 54 -8 73 4 14 8 20 -4 25 -53 2 -27 8
-35 25 -36 12 -1 22 -1 22 0 0 1 -5 16 -11 34 -12 35 -4 85 12 75 6 -3 13 4
16 16 6 22 7 22 20 4 14 -18 15 -18 35 6 11 14 27 24 35 22 8 -2 21 4 27 14 8
11 20 15 30 11 14 -6 16 -3 10 16 -6 21 -6 21 15 -3 20 -23 22 -24 32 -7 7 12
17 16 32 12 12 -4 30 -9 40 -11 22 -7 23 18 1 51 -25 38 3 31 40 -10 18 -19
35 -35 38 -35 3 0 11 20 17 45 6 25 15 45 19 45 5 0 7 13 4 30 -4 29 -4 29 26
18 32 -13 62 1 62 27 0 15 22 25 56 25 14 0 24 5 23 13 -3 26 2 37 41 76 24
24 38 46 34 55 -3 8 -28 27 -56 41 -44 23 -54 25 -80 14 -22 -9 -32 -9 -41 0
-16 16 -25 14 -32 -10 -6 -19 -8 -20 -26 -4 -18 17 -72 14 -66 -3 1 -4 -1 -8
-5 -9 -18 -6 -28 -2 -28 10 0 20 -67 81 -74 68 -4 -6 -2 -11 4 -11 6 0 10 -12
8 -27 -5 -42 -37 -37 -52 6 -11 36 -36 54 -36 27 0 -8 -8 -14 -18 -13 -14 1
-17 8 -14 31 3 29 2 30 -12 12 -17 -21 -28 -16 -33 14 -4 27 -40 76 -103 142
-49 51 -57 55 -76 45 -23 -13 -21 -37 2 -37 8 0 14 -5 14 -11 0 -6 -6 -9 -14
-6 -9 4 -16 -1 -18 -10 -5 -28 -38 13 -38 48 0 25 -4 29 -27 30 -16 0 -36 2
-45 4 -10 2 -18 -1 -18 -6 0 -5 6 -9 14 -9 7 0 21 -11 29 -24 15 -22 15 -25 1
-30 -24 -9 -31 -7 -14 4 12 8 9 10 -12 10 -30 0 -58 32 -58 67 0 12 -7 26 -16
31 -9 5 -23 24 -30 41 -11 27 -11 33 1 37 8 3 11 12 8 21 -5 12 -3 14 8 8 11
-7 10 -3 -2 15 -22 34 -48 37 -72 9 -13 -17 -17 -19 -13 -6 3 9 1 17 -4 17 -6
0 -10 12 -10 26 0 20 4 25 16 20 13 -5 15 -2 10 16 -3 13 -6 26 -6 30 0 4 -10
8 -22 10 -17 2 -23 9 -22 27 0 13 -7 32 -18 43 -27 27 -23 41 12 36 35 -5 46
4 25 22 -12 10 -12 15 3 37 24 38 23 50 -9 65 l-28 14 34 13 c31 11 34 15 28
42 -4 22 -2 29 11 29 19 0 21 16 4 23 -8 3 -5 6 6 6 13 1 16 6 11 19 -5 9 -11
33 -14 54 -5 29 -21 50 -86 110 -129 118 -256 170 -410 167 -103 -2 -135 0
-135 10 0 5 15 14 33 21 69 27 140 64 129 68 -23 7 -12 23 14 20 17 -2 28 2
31 12 4 13 3 13 -6 0 -9 -13 -11 -12 -11 6 0 11 -4 24 -9 30 -5 5 -14 27 -21
49 -7 22 -17 45 -22 52 -5 7 -7 16 -4 21 3 6 0 14 -7 20 -16 13 -66 21 -72 12z
m75 -195 c0 -8 -7 -15 -15 -15 -26 0 -18 20 13 29 1 1 2 -6 2 -14z m511 -1015
c11 -50 -2 -72 -16 -29 -8 21 -18 33 -29 33 -21 -2 -21 12 2 25 25 15 36 8 43
-29z m186 -196 c-3 -3 -12 -4 -19 -1 -8 3 -5 6 6 6 11 1 17 -2 13 -5z m172
-36 c5 -13 9 -27 9 -32 0 -5 7 -13 16 -18 25 -14 20 -40 -6 -36 -13 2 -22 9
-20 17 2 8 -4 31 -12 52 -9 23 -12 39 -6 39 6 0 14 -10 19 -22z m-79 -13 c0
-14 -4 -25 -9 -25 -12 0 -19 21 -13 38 8 21 22 13 22 -13z m-290 -679 c0 -22
-2 -23 -25 -13 -29 14 -32 24 -7 30 30 8 32 7 32 -17z m-173 -28 c-3 -8 -6 -5
-6 6 -1 11 2 17 5 13 3 -3 4 -12 1 -19z m223 -128 c-24 -15 -36 -11 -14 4 10
8 21 12 24 10 2 -3 -2 -9 -10 -14z"/>
<path d="M5850 4061 c0 -6 10 -16 23 -21 22 -9 22 -9 1 -9 -18 -1 -22 -7 -20
-33 0 -18 8 -38 16 -44 11 -9 12 -17 3 -36 -10 -23 -10 -25 15 -20 19 4 24 1
20 -9 -21 -50 -21 -49 8 -49 l29 -1 -30 -24 c-27 -22 -24 -31 8 -26 4 0 7 -3
7 -9 0 -5 -4 -10 -10 -10 -5 0 -7 -7 -3 -15 3 -9 -2 -22 -12 -29 -16 -12 -14
-14 23 -20 45 -7 51 -16 27 -36 -23 -19 -18 -28 11 -22 23 4 25 2 19 -17 -4
-13 -2 -21 6 -21 6 0 -3 -10 -22 -23 -40 -27 -52 -67 -20 -67 12 0 20 -6 19
-12 -2 -9 8 -12 32 -11 31 2 33 1 17 -10 -56 -37 -81 -59 -60 -53 26 8 39 -9
23 -29 -10 -12 -9 -16 3 -21 26 -10 28 -45 4 -65 -12 -10 -28 -18 -34 -19 -7
0 -13 -3 -13 -7 0 -14 19 -38 30 -39 5 -1 15 -2 20 -3 6 0 10 -15 10 -31 0
-22 -6 -33 -22 -40 -19 -7 -15 -9 22 -10 44 -1 45 -1 24 -18 -12 -9 -30 -23
-40 -30 -18 -12 -18 -13 1 -9 31 6 27 -39 -5 -65 -16 -14 -21 -22 -12 -25 20
-7 14 -21 -10 -25 -13 -2 -22 -9 -20 -17 1 -7 -4 -18 -12 -25 -8 -6 -16 -20
-18 -31 -2 -11 -18 -28 -37 -37 l-33 -17 33 -3 34 -3 -51 -28 c-44 -25 -50
-32 -46 -55 3 -22 -2 -31 -21 -41 -14 -7 -23 -19 -21 -26 3 -7 1 -16 -5 -19
-19 -12 1 -36 29 -36 40 0 48 -29 10 -37 -40 -7 -38 -21 3 -25 39 -4 43 -22 4
-26 -18 -2 -32 -13 -42 -33 -9 -16 -21 -29 -27 -29 -9 0 -9 -3 -1 -11 15 -15
-2 -68 -31 -93 -20 -18 -20 -19 -1 -12 11 4 51 10 90 13 65 6 69 5 53 -10 -9
-10 -21 -17 -26 -17 -6 0 -12 -7 -16 -15 -4 -12 3 -15 30 -15 44 0 36 -16 -14
-29 -30 -8 -37 -15 -38 -36 -1 -14 4 -25 11 -25 28 0 35 -26 16 -63 -12 -23
-15 -39 -8 -46 12 -12 -15 -42 -63 -68 -27 -15 -35 -26 -35 -49 -1 -19 -6 -30
-18 -32 -22 -4 -22 -11 0 -27 16 -12 14 -15 -17 -34 -19 -11 -30 -21 -25 -21
6 0 3 -5 -5 -10 -13 -8 -12 -10 3 -10 9 0 17 -4 17 -10 0 -14 -42 -50 -59 -50
-12 0 -11 -3 3 -13 18 -13 18 -14 0 -21 -18 -7 -18 -8 1 -22 19 -14 19 -15 -3
-20 -25 -7 -30 -34 -6 -34 11 0 14 -8 12 -27 -2 -23 -8 -28 -28 -27 -28 1 -71
-41 -63 -63 3 -7 -1 -13 -9 -13 -8 0 -20 -17 -27 -38 -8 -22 -30 -53 -52 -72
-36 -31 -45 -33 -97 -31 l-57 3 24 -21 c13 -12 28 -21 33 -21 4 0 8 -9 8 -20
0 -13 -7 -20 -19 -20 -15 0 -19 -6 -17 -31 3 -38 -10 -46 -35 -23 -17 16 -19
16 -19 0 0 -9 12 -22 26 -28 l27 -12 -8 -141 c-4 -77 -9 -158 -10 -180 -2 -22
-6 -57 -10 -77 -5 -25 -4 -38 4 -38 6 0 13 12 16 28 11 52 35 94 50 88 9 -3
12 0 9 8 -3 8 -1 17 5 21 6 3 11 1 11 -5 0 -6 10 -8 24 -4 13 3 27 1 31 -5 3
-6 10 -9 15 -6 5 3 25 -6 46 -20 20 -14 34 -25 30 -25 -3 0 4 -12 17 -26 12
-14 22 -31 22 -38 0 -16 65 -73 97 -85 19 -7 31 -6 44 4 12 9 14 14 6 15 -10
0 -10 4 2 16 22 21 20 41 -4 49 -16 5 -18 12 -13 38 3 18 10 37 16 42 6 7 8
-1 4 -22 -4 -19 -2 -33 3 -33 6 0 10 16 10 35 0 24 5 35 15 35 8 0 15 7 15 15
0 20 24 19 41 -1 12 -15 11 -16 -9 -10 -14 5 -22 3 -22 -4 0 -21 21 -50 36
-50 12 0 12 4 4 20 -12 23 -1 27 31 10 13 -8 25 -7 40 0 27 15 34 7 13 -14 -9
-9 -13 -20 -9 -24 3 -4 11 1 16 11 6 9 14 17 19 17 16 0 11 -27 -6 -34 -8 -3
-12 -10 -9 -16 4 -6 -7 -10 -27 -11 -30 -1 -31 -2 -8 -8 25 -8 25 -8 -7 -15
-42 -10 -53 -41 -24 -67 12 -11 21 -26 21 -34 0 -23 48 -68 65 -61 8 3 15 1
15 -5 0 -5 -8 -13 -17 -16 -30 -11 -75 -62 -69 -78 8 -21 56 -31 67 -14 6 10
9 11 9 2 0 -14 37 -17 64 -7 12 4 14 13 9 32 -6 25 -6 26 11 9 10 -9 22 -17
27 -17 5 0 9 -7 9 -15 0 -8 -7 -15 -16 -15 -10 0 -14 -6 -11 -14 3 -8 -1 -20
-9 -27 -12 -10 -12 -13 2 -24 35 -25 -30 -25 -113 0 -17 5 -25 3 -29 -10 -8
-20 33 -62 84 -89 41 -21 49 -36 23 -43 -24 -6 -27 -18 -8 -30 8 -4 22 -20 31
-35 13 -20 14 -27 4 -31 -10 -4 -10 -8 2 -16 8 -6 19 -12 23 -13 4 -2 9 -13
10 -25 2 -32 53 -37 302 -29 297 9 370 29 471 130 61 61 88 110 112 203 16 63
17 182 17 1696 0 1601 0 1629 -19 1643 -11 8 -31 14 -45 14 -14 0 -57 15 -95
34 -39 19 -92 40 -118 46 -41 11 -52 10 -73 -4 -24 -16 -27 -16 -58 7 -17 14
-39 25 -47 26 -47 4 -90 14 -90 22 0 4 -32 8 -71 8 -45 0 -75 4 -79 12 -4 6
-25 13 -46 15 -22 2 -51 6 -66 9 -20 3 -30 -1 -38 -15 -14 -26 -28 -25 -56 5
-13 14 -31 25 -41 26 -34 1 -68 6 -105 14 -26 5 -38 4 -38 -4z m-193 -2483
c-3 -8 -6 -5 -6 6 -1 11 2 17 5 13 3 -3 4 -12 1 -19z m10 -40 c-3 -8 -6 -5 -6
6 -1 11 2 17 5 13 3 -3 4 -12 1 -19z m68 -208 c3 -5 15 -10 25 -10 10 0 21 -4
25 -10 7 -11 -4 -60 -14 -60 -16 0 -52 43 -47 57 3 8 1 11 -4 8 -6 -3 -15 -3
-21 1 -8 4 -7 9 2 15 18 11 26 11 34 -1z m-222 -127 c7 -6 -21 -32 -36 -33 -4
0 -3 9 3 20 11 21 22 25 33 13z m297 -18 c0 -15 -6 -25 -14 -25 -22 0 -30 19
-16 35 18 22 30 18 30 -10z m-202 -74 c3 -8 -1 -12 -9 -9 -7 2 -15 10 -17 17
-3 8 1 12 9 9 7 -2 15 -10 17 -17z m305 12 c-7 -2 -19 -2 -25 0 -7 3 -2 5 12
5 14 0 19 -2 13 -5z m-13 -53 c0 -5 -2 -10 -4 -10 -3 0 -8 5 -11 10 -3 6 -1
10 4 10 6 0 11 -4 11 -10z m-160 -86 c0 -10 -6 -14 -15 -10 -8 3 -15 1 -15 -4
0 -6 -5 -10 -10 -10 -7 0 -7 6 0 20 13 24 40 27 40 4z m233 -25 c-22 -7 -31
-14 -27 -24 7 -17 -11 -21 -21 -5 -11 18 16 40 49 39 l31 -1 -32 -9z m12 -23
c8 -7 11 -16 8 -19 -5 -6 -33 17 -33 27 0 10 11 7 25 -8z m24 -166 c6 8 13 11
16 8 4 -4 -2 -17 -14 -29 -12 -13 -21 -17 -21 -11 0 7 -5 12 -11 12 -6 0 -8
-9 -4 -21 5 -15 4 -19 -4 -15 -15 9 -14 39 1 54 9 9 14 9 20 -1 6 -9 10 -9 17
3z m163 -32 c-7 -7 -12 -8 -12 -2 0 14 12 26 19 19 2 -3 -1 -11 -7 -17z m-226
-8 c0 -12 -5 -19 -12 -16 -7 3 -15 0 -17 -7 -2 -7 -7 -9 -10 -6 -7 5 23 49 33
49 3 0 6 -9 6 -20z m149 -50 c-3 -5 -11 -10 -16 -10 -6 0 -7 5 -4 10 3 6 11
10 16 10 6 0 7 -4 4 -10z m-35 -185 c-28 -34 -36 -5 -14 49 7 18 8 18 17 -7 6
-19 5 -32 -3 -42z m46 30 c-21 -16 -32 -13 -21 4 3 6 14 11 23 11 15 -1 15 -2
-2 -15z"/>
<path d="M1638 3723 c7 -3 16 -2 19 1 4 3 -2 6 -13 5 -11 0 -14 -3 -6 -6z"/>
<path d="M3388 3723 c7 -3 16 -2 19 1 4 3 -2 6 -13 5 -11 0 -14 -3 -6 -6z"/>
<path d="M3420 3720 c0 -5 5 -10 10 -10 6 0 10 5 10 10 0 6 -4 10 -10 10 -5 0
-10 -4 -10 -10z"/>
<path d="M3460 3720 c-11 -7 -6 -10 20 -10 26 0 31 3 20 10 -8 5 -17 10 -20
10 -3 0 -12 -5 -20 -10z"/>
<path d="M1584 3635 c-10 -8 -14 -15 -8 -15 6 0 17 7 24 15 16 19 9 19 -16 0z"/>
<path d="M5948 3603 c7 -3 16 -2 19 1 4 3 -2 6 -13 5 -11 0 -14 -3 -6 -6z"/>
<path d="M3040 3549 c0 -5 5 -7 10 -4 6 3 10 8 10 11 0 2 -4 4 -10 4 -5 0 -10
-5 -10 -11z"/>
<path d="M3170 3556 c0 -2 7 -9 15 -16 9 -7 15 -8 15 -2 0 5 -7 12 -15 16 -8
3 -15 4 -15 2z"/>
<path d="M1627 3460 c-9 -11 -13 -20 -7 -20 5 0 14 9 20 20 6 11 9 20 8 20 -2
0 -11 -9 -21 -20z"/>
<path d="M3020 3460 c0 -5 5 -10 11 -10 5 0 7 5 4 10 -3 6 -8 10 -11 10 -2 0
-4 -4 -4 -10z"/>
<path d="M3380 3395 c0 -12 28 -35 44 -35 11 0 -5 26 -24 38 -17 10 -20 10
-20 -3z"/>
<path d="M3260 3366 c0 -2 7 -7 16 -10 8 -3 12 -2 9 4 -6 10 -25 14 -25 6z"/>
<path d="M3445 3340 c3 -5 11 -10 16 -10 6 0 7 5 4 10 -3 6 -11 10 -16 10 -6
0 -7 -4 -4 -10z"/>
<path d="M3275 3253 c8 -8 19 -11 25 -8 17 11 11 20 -15 21 -21 2 -22 0 -10
-13z"/>
<path d="M5902 3261 c-11 -7 -11 -9 2 -14 10 -4 16 -1 16 8 0 17 -1 17 -18 6z"/>
<path d="M258 3192 c-9 -2 -19 -10 -22 -18 -4 -10 3 -14 29 -14 18 0 37 5 40
10 3 6 0 10 -9 10 -8 0 -16 4 -18 8 -1 4 -10 6 -20 4z"/>
<path d="M1735 3065 c-16 -7 -23 -14 -14 -14 8 -1 24 6 35 14 24 18 18 18 -21
0z"/>
<path d="M1642 3033 c-24 -8 -41 -17 -39 -19 4 -5 97 26 97 32 0 6 -11 4 -58
-13z"/>
<path d="M1771 3026 c-13 -33 -9 -43 8 -22 7 8 11 23 8 33 -3 14 -6 12 -16
-11z"/>
<path d="M200 3000 c0 -5 5 -10 10 -10 6 0 10 5 10 10 0 6 -4 10 -10 10 -5 0
-10 -4 -10 -10z"/>
<path d="M1768 2906 c-32 -33 -56 -61 -55 -62 2 -2 31 23 66 55 34 33 59 61
54 63 -4 3 -34 -23 -65 -56z"/>
<path d="M1687 2823 c-4 -3 -7 -11 -7 -17 0 -6 5 -5 12 2 6 6 9 14 7 17 -3 3
-9 2 -12 -2z"/>
<path d="M3268 2633 c-21 -5 -24 -23 -4 -23 8 0 16 7 20 15 3 8 4 14 3 14 -1
-1 -10 -3 -19 -6z"/>
<path d="M3197 2608 c-2 -7 -1 -22 4 -33 6 -16 8 -14 8 13 1 33 -4 41 -12 20z"/>
<path d="M3070 2571 c0 -22 21 -33 41 -20 11 7 11 9 -3 9 -10 0 -18 7 -18 15
0 8 -4 15 -10 15 -5 0 -10 -9 -10 -19z"/>
<path d="M2975 2569 c-4 -6 -3 -15 3 -21 6 -6 11 -4 15 6 7 18 -9 31 -18 15z"/>
<path d="M1440 2340 c0 -5 5 -10 10 -10 6 0 10 5 10 10 0 6 -4 10 -10 10 -5 0
-10 -4 -10 -10z"/>
<path d="M3190 2251 c0 -6 4 -13 10 -16 6 -3 7 1 4 9 -7 18 -14 21 -14 7z"/>
<path d="M1548 2243 c7 -3 16 -2 19 1 4 3 -2 6 -13 5 -11 0 -14 -3 -6 -6z"/>
<path d="M2953 2185 c0 -33 2 -45 4 -27 2 18 2 45 0 60 -2 15 -4 0 -4 -33z"/>
<path d="M1545 2200 c3 -5 18 -10 33 -10 21 0 24 2 12 10 -20 13 -53 13 -45 0z"/>
<path d="M1520 2175 c0 -9 6 -12 15 -9 8 4 12 10 9 15 -8 14 -24 10 -24 -6z"/>
<path d="M1550 2159 c-24 -10 -24 -11 -6 -24 21 -16 103 -31 113 -21 4 3 -8 6
-25 6 -39 0 -42 15 -4 25 25 7 25 8 7 15 -27 11 -55 11 -85 -1z"/>
<path d="M1456 2125 c4 -9 11 -14 16 -13 15 5 11 23 -6 26 -11 2 -14 -2 -10
-13z"/>
<path d="M1556 2079 c-7 -11 -17 -19 -22 -17 -15 4 -54 -13 -54 -23 0 -5 11
-14 25 -19 34 -13 31 -17 -7 -13 -18 2 -27 0 -20 -3 17 -8 15 -49 -3 -84 -14
-27 -14 -30 -1 -30 20 0 91 -37 107 -56 9 -11 8 -14 -4 -14 -9 0 -21 -8 -26
-19 -6 -10 -22 -22 -36 -25 -14 -4 -25 -13 -25 -21 0 -19 19 -19 26 0 4 8 13
15 20 15 8 0 17 7 20 15 5 13 8 13 21 0 8 -8 23 -15 34 -15 16 0 19 -4 13 -22
-10 -35 -24 -48 -53 -49 l-26 -2 25 -4 c42 -8 46 -21 10 -36 -35 -15 -26 -33
13 -24 12 3 31 1 42 -3 18 -8 17 -9 -7 -9 -18 -1 -29 -8 -33 -22 -9 -26 -45
-39 -89 -32 -46 7 -72 -2 -57 -21 14 -16 69 -27 77 -14 9 15 61 9 61 -7 0 -11
-12 -15 -44 -15 -40 0 -55 -11 -33 -25 17 -11 11 -35 -9 -35 -28 0 -91 39 -91
56 0 12 -4 12 -20 4 -14 -7 -20 -7 -20 0 0 5 5 10 12 10 9 0 9 3 1 11 -9 9
-23 9 -57 -1 -27 -7 -60 -9 -83 -5 -21 4 -48 9 -60 11 -13 3 -23 1 -23 -2 0
-13 72 -74 81 -68 5 3 7 10 4 15 -4 5 1 9 9 9 9 0 15 -5 14 -12 -2 -7 4 -12
12 -13 8 0 15 -4 16 -10 1 -27 42 -76 72 -86 34 -11 42 -33 15 -43 -12 -5 -14
-9 -5 -18 7 -7 12 -23 12 -36 0 -21 2 -23 15 -12 9 7 19 10 22 6 4 -4 1 -11
-7 -17 -11 -7 -7 -8 13 -3 29 7 61 -11 51 -28 -3 -5 2 -18 12 -29 9 -10 14
-19 9 -19 -4 0 -2 -6 4 -14 7 -8 21 -12 31 -9 22 6 28 -12 8 -20 -7 -3 0 -6
16 -6 21 -1 39 -13 68 -45 21 -25 48 -48 58 -51 21 -7 130 40 130 56 0 5 18
16 40 25 22 9 40 20 40 25 0 5 7 9 16 9 9 0 24 8 33 18 11 12 44 22 102 30 85
12 155 15 131 5 -21 -8 -3 -23 29 -23 16 0 29 -4 29 -10 0 -5 -8 -10 -17 -10
-12 0 -8 -5 11 -15 16 -9 36 -25 44 -36 10 -15 21 -19 38 -15 21 6 24 3 24
-19 0 -27 9 -32 27 -14 13 13 33 4 33 -17 0 -17 12 -18 28 -2 17 17 27 2 12
-17 -12 -14 -9 -20 16 -41 18 -15 38 -23 52 -20 15 2 43 -9 75 -30 33 -22 53
-30 58 -23 4 8 9 6 15 -4 5 -9 23 -17 39 -19 23 -2 31 -9 35 -28 3 -15 14 -26
30 -30 14 -4 24 -12 22 -18 -3 -16 7 -15 25 4 9 9 22 12 32 8 9 -4 28 -9 43
-11 18 -4 25 -10 21 -19 -3 -9 2 -14 15 -14 12 0 23 -4 27 -10 3 -5 12 -7 20
-4 9 4 18 -2 22 -12 16 -42 80 -63 99 -33 8 13 48 11 61 -2 9 -9 18 -8 38 5
14 10 32 15 38 12 8 -3 8 -5 1 -5 -6 -1 -9 -12 -6 -26 5 -27 22 -35 22 -10 0
22 27 18 33 -5 5 -21 27 -28 27 -9 0 8 4 8 15 -1 18 -15 35 -5 35 22 0 13 5
18 14 15 8 -3 17 -1 19 6 3 8 11 6 27 -8 15 -14 37 -20 69 -20 25 -1 51 -4 56
-7 6 -4 55 -11 110 -17 54 -7 104 -16 110 -21 27 -23 37 9 50 161 7 85 14 147
15 139 1 -8 2 -22 1 -31 -1 -8 3 -26 8 -40 6 -17 8 5 6 73 -3 66 0 100 8 106
15 11 127 13 127 2 0 -5 -5 -12 -10 -15 -6 -4 -8 -26 -4 -56 5 -39 3 -53 -10
-68 -20 -22 -15 -26 37 -35 32 -6 37 -10 37 -34 0 -32 -16 -52 -42 -52 -16 0
-18 -11 -17 -111 l0 -111 39 7 c21 4 54 8 72 10 18 2 53 11 77 20 24 9 56 15
70 13 24 -3 24 -4 -14 -22 l-40 -19 38 -16 c27 -12 35 -19 27 -27 -8 -8 -6
-15 6 -25 12 -10 49 -14 134 -14 65 0 116 3 114 7 -5 8 8 12 86 27 81 17 93
20 110 36 9 8 29 15 43 15 15 0 27 3 27 8 0 12 67 45 79 38 13 -8 81 20 81 33
0 10 83 52 130 65 52 15 80 29 80 40 0 7 16 18 36 25 36 13 44 25 63 99 7 23
15 40 20 38 4 -3 13 64 20 149 11 132 11 158 -2 186 -8 19 -19 47 -26 62 -6
15 -15 26 -20 22 -5 -3 -28 2 -51 11 -22 9 -44 14 -47 10 -3 -3 2 -8 11 -12 9
-3 29 -18 45 -33 l29 -27 -31 -14 c-25 -11 -34 -11 -51 0 -19 12 -20 12 -7 -4
16 -19 15 -21 -22 -30 -19 -4 -26 -3 -22 4 3 5 13 10 22 10 13 0 13 3 3 15 -7
8 -9 15 -4 15 20 0 -40 32 -64 35 -15 1 -47 6 -72 10 l-45 8 25 -21 25 -21
-23 -1 c-13 0 -21 4 -18 8 2 4 -4 13 -14 20 -21 13 -32 -3 -25 -38 2 -11 0
-18 -6 -15 -5 4 -9 12 -9 20 0 16 -63 40 -68 25 -4 -11 -55 -14 -65 -4 -7 7
-67 14 -67 8 0 -10 58 -31 80 -29 14 1 33 -1 42 -6 9 -5 18 -5 20 0 2 5 14 3
28 -5 l25 -14 -29 6 c-22 5 -27 4 -21 -6 5 -8 4 -11 -3 -6 -5 3 -12 1 -14 -6
-3 -7 -12 -9 -22 -5 -9 4 -15 11 -11 16 3 6 -7 9 -25 6 -16 -2 -30 1 -30 6 0
12 -37 12 -45 0 -3 -5 -1 -12 3 -15 12 -7 13 -66 1 -66 -6 0 -7 -6 -3 -12 4
-7 -7 2 -26 19 -18 18 -42 35 -52 39 -10 3 -16 10 -13 15 4 5 1 9 -4 9 -20 0
-11 -19 24 -56 20 -20 34 -38 32 -40 -9 -9 -47 11 -52 27 -4 10 -11 19 -16 19
-6 0 -8 4 -5 9 3 5 -1 14 -8 20 -9 8 -16 8 -20 2 -5 -7 -16 -6 -33 2 -21 9
-27 9 -31 -1 -3 -10 -8 -9 -23 4 -26 23 -73 12 -64 -16 5 -15 2 -20 -11 -20
-10 0 -14 3 -11 7 13 12 -14 30 -39 25 -17 -3 -23 -9 -20 -19 3 -8 6 -17 6
-19 0 -2 7 -4 15 -4 26 0 95 -49 95 -67 0 -11 -40 0 -58 17 -12 12 -22 16 -22
10 0 -6 -5 -8 -11 -4 -6 3 -15 0 -20 -7 -8 -12 -11 -12 -19 1 -7 11 -5 18 6
26 12 10 10 13 -16 22 -32 12 -42 -2 -19 -25 8 -8 2 -10 -22 -9 -19 2 -38 5
-44 7 -5 2 -11 0 -13 -6 -1 -5 14 -12 35 -15 27 -4 33 -7 21 -12 -9 -4 -21
-16 -27 -26 -9 -17 -8 -19 7 -16 9 3 26 -2 37 -11 11 -8 13 -13 5 -10 -8 3
-28 7 -45 9 -63 9 -94 19 -99 32 -4 12 -2 12 14 4 11 -6 26 -8 32 -4 7 4 8 3
4 -4 -7 -12 16 -17 27 -6 6 7 -35 44 -48 44 -4 0 -18 9 -32 20 -30 23 -43 25
-43 6 0 -7 -15 -17 -32 -20 l-33 -7 30 -24 c33 -28 27 -34 -9 -10 -23 15 -25
14 -48 -15 -20 -25 -31 -31 -54 -28 -25 4 -26 5 -9 12 36 13 49 22 53 35 3 9
-4 7 -21 -4 -15 -9 -31 -14 -37 -10 -5 3 -10 1 -10 -4 0 -6 -5 -11 -11 -11 -8
0 -10 12 -6 33 6 41 -7 70 -17 35 l-6 -23 -20 24 c-11 12 -17 27 -14 32 3 5
-2 9 -10 9 -9 0 -15 -5 -14 -11 2 -6 -5 -13 -14 -14 -21 -4 -23 6 -5 24 10 11
9 13 -6 7 -10 -3 -21 -6 -23 -6 -3 0 -2 -5 2 -11 5 -8 -1 -10 -19 -7 -17 3
-28 0 -31 -9 -5 -12 -8 -12 -20 -1 -8 7 -12 15 -11 18 2 3 0 12 -4 18 -11 18
-38 5 -46 -21 -4 -14 -8 -17 -12 -9 -2 6 -13 12 -23 12 -10 0 -22 5 -25 10 -8
13 -75 13 -75 0 0 -11 -50 -34 -57 -26 -2 2 1 13 8 25 18 27 11 31 -34 22 -22
-6 -37 -5 -37 0 0 6 -6 9 -12 8 -7 -1 -24 -1 -38 0 l-25 1 24 19 23 18 -31 -5
c-22 -3 -31 -9 -27 -18 6 -17 -8 -18 -36 -3 l-21 11 24 19 c13 10 19 19 12 19
-18 0 -63 -22 -63 -31 0 -8 -39 -6 -55 3 -6 3 -35 4 -65 3 -60 -2 -79 3 -59
16 7 4 10 11 7 14 -10 11 -105 7 -127 -4 -34 -19 -53 -14 -45 12 4 12 11 25
17 29 6 3 -7 5 -28 3 -21 -2 -43 -9 -48 -14 -14 -14 -40 -14 -32 -1 3 6 -4 10
-17 10 l-23 0 25 20 c14 11 21 20 15 21 -5 1 -14 3 -20 4 -5 2 -20 3 -32 4
-16 1 -20 6 -16 22 6 20 3 21 -38 15 l-44 -6 40 15 c22 9 45 13 52 11 7 -3 13
-2 13 3 0 5 10 11 22 14 12 4 20 8 17 11 -6 7 -102 -14 -114 -25 -14 -14 -23
-11 -21 8 1 12 -8 19 -27 23 l-29 5 21 27 c23 29 26 38 11 38 -5 0 -10 -7 -10
-15 0 -11 -10 -15 -37 -14 -22 1 -29 3 -18 6 40 10 42 26 3 19 -36 -6 -38 -5
-38 18 0 23 -3 25 -32 20 -21 -4 -28 -2 -20 3 9 7 -3 13 -39 21 -28 7 -60 12
-71 12 -16 0 -18 3 -9 14 9 11 5 15 -21 21 -23 4 -28 9 -18 13 26 12 21 32
-10 38 -16 4 -30 10 -30 14 0 4 -12 11 -26 14 -18 5 -24 12 -20 22 3 8 0 14
-7 13 -6 -1 -25 -1 -41 0 -23 1 -26 4 -17 15 9 11 4 15 -30 20 -26 4 -39 11
-36 19 4 13 -29 47 -47 47 -6 0 -4 5 4 10 11 7 3 10 -29 10 -24 0 -41 3 -38 6
10 10 -39 44 -63 44 -11 0 -18 5 -15 10 3 6 -3 10 -13 10 -11 0 -32 6 -47 14
-27 14 -27 14 -6 25 12 7 21 15 21 19 0 8 -105 42 -130 42 -13 0 -13 2 0 10
11 7 0 10 -38 10 -29 0 -51 4 -48 8 11 18 -35 9 -48 -9z m74 -39 c0 -5 -7 -10
-15 -10 -8 0 -15 -6 -15 -14 0 -8 -7 -17 -16 -20 -22 -8 -26 -8 -19 4 3 6 1
10 -4 10 -19 0 -12 15 12 26 29 15 57 17 57 4z m441 -259 c-8 -5 -20 -7 -28
-4 -21 8 -15 13 15 13 20 0 23 -3 13 -9z m-717 -277 c9 -3 13 -10 10 -15 -3
-5 2 -6 11 -3 18 7 75 -41 75 -62 0 -18 -50 -21 -81 -6 -33 15 -46 31 -49 57
-4 37 1 42 34 29z m273 -60 c-3 -3 -12 -4 -19 -1 -8 3 -5 6 6 6 11 1 17 -2 13
-5z m-27 -54 c0 -5 -5 -10 -11 -10 -5 0 -7 5 -4 10 3 6 8 10 11 10 2 0 4 -4 4
-10z m11 -57 c12 -15 12 -16 -3 -10 -11 4 -17 2 -15 -6 1 -7 -8 -12 -21 -12
-13 0 -28 -8 -33 -17 -5 -10 -16 -15 -24 -12 -18 7 -20 34 -2 34 7 0 18 9 25
20 15 24 55 26 73 3z m433 -45 c-7 -10 -74 -11 -74 0 0 4 18 7 39 7 22 1 37
-3 35 -7z m936 -7 c0 -5 -11 -8 -25 -8 -13 0 -22 3 -19 8 3 5 14 9 25 9 10 0
19 -4 19 -9z m-1027 -8 c-7 -2 -21 -2 -30 0 -10 3 -4 5 12 5 17 0 24 -2 18 -5z
m127 -23 c3 -4 16 -10 30 -13 22 -4 21 -4 -7 -6 -17 0 -35 4 -39 10 -3 6 -17
8 -30 5 -23 -6 -32 3 -17 18 9 8 55 -2 63 -14z m75 10 c-3 -5 -17 -10 -30 -10
-13 0 -27 5 -30 10 -4 6 8 10 30 10 22 0 34 -4 30 -10z m2565 -22 c0 -4 -9 -8
-20 -8 -11 0 -20 4 -20 9 0 6 9 9 20 8 11 -1 20 -5 20 -9z m540 -24 c0 -14 -4
-23 -10 -19 -5 3 -10 15 -10 26 0 10 5 19 10 19 6 0 10 -12 10 -26z m-3208 4
c-9 -9 -15 -9 -24 0 -9 9 -7 12 12 12 19 0 21 -3 12 -12z m2969 -5 c-9 -7 -20
-13 -24 -13 -4 0 -28 -9 -53 -20 -128 -59 -439 -106 -605 -93 -59 5 -66 7 -62
24 4 15 8 17 19 8 8 -6 23 -9 34 -6 11 3 20 1 20 -5 0 -6 10 -8 22 -5 12 3 30
2 40 -4 15 -8 18 -6 18 12 0 18 3 20 28 13 35 -11 168 -12 178 -1 5 4 2 13 -6
18 -12 9 -10 10 7 6 15 -3 20 -1 16 9 -4 10 4 12 34 7 l38 -6 -19 21 c-23 27
-16 28 24 4 16 -10 27 -22 22 -26 -4 -4 18 -5 48 -1 52 7 79 15 49 15 -29 0
15 20 46 20 46 0 77 11 71 25 -3 9 7 12 34 11 32 0 35 -2 21 -13z m-596 -54
c11 -17 -1 -21 -15 -4 -8 9 -8 15 -2 15 6 0 14 -5 17 -11z m-165 -34 c0 -12
-19 -12 -23 0 -4 9 -1 12 9 8 7 -3 14 -7 14 -8z m-443 -107 c-3 -8 -6 -5 -6 6
-1 11 2 17 5 13 3 -3 4 -12 1 -19z m-1327 -8 c0 -5 -5 -10 -11 -10 -5 0 -7 5
-4 10 3 6 8 10 11 10 2 0 4 -4 4 -10z m2747 -37 c-3 -10 -5 -2 -5 17 0 19 2
27 5 18 2 -10 2 -26 0 -35z m-542 -143 c-11 -5 -40 -8 -65 -8 -45 1 -45 1 -10
8 19 4 49 8 65 8 25 0 27 -1 10 -8z"/>
<path d="M2936 1903 c-6 -14 -5 -15 5 -6 7 7 10 15 7 18 -3 3 -9 -2 -12 -12z"/>
<path d="M2925 1841 c3 -11 1 -22 -4 -26 -6 -3 -10 -31 -8 -60 3 -81 20 -70
32 19 5 45 -3 86 -17 86 -5 0 -7 -9 -3 -19z"/>
<path d="M2080 1819 c0 -5 5 -7 10 -4 6 3 10 8 10 11 0 2 -4 4 -10 4 -5 0 -10
-5 -10 -11z"/>
<path d="M2118 1823 c7 -3 16 -2 19 1 4 3 -2 6 -13 5 -11 0 -14 -3 -6 -6z"/>
<path d="M2805 1800 c-3 -5 -2 -10 4 -10 5 0 13 5 16 10 3 6 2 10 -4 10 -5 0
-13 -4 -16 -10z"/>
<path d="M2960 1749 c0 -5 5 -7 10 -4 6 3 10 8 10 11 0 2 -4 4 -10 4 -5 0 -10
-5 -10 -11z"/>
<path d="M5373 1483 c9 -9 20 -13 24 -9 4 4 1 11 -7 16 -25 16 -35 11 -17 -7z"/>
<path d="M5250 1435 c7 -8 20 -15 29 -15 13 1 13 3 -3 15 -26 19 -42 19 -26 0z"/>
<path d="M2720 1409 c0 -5 5 -7 10 -4 6 3 10 8 10 11 0 2 -4 4 -10 4 -5 0 -10
-5 -10 -11z"/>
<path d="M5090 1326 c0 -2 7 -7 16 -10 8 -3 12 -2 9 4 -6 10 -25 14 -25 6z"/>
<path d="M3052 1305 c-10 -12 -10 -15 1 -15 8 0 20 7 27 15 17 21 -10 20 -28
0z"/>
<path d="M4482 1294 c10 -10 20 -16 22 -13 3 3 -5 11 -17 18 -21 13 -21 12 -5
-5z"/>
<path d="M4607 1303 c-4 -6 2 -18 13 -28 23 -21 27 -8 7 20 -8 11 -16 14 -20
8z"/>
<path d="M4305 1270 c-3 -5 -2 -10 4 -10 5 0 13 5 16 10 3 6 2 10 -4 10 -5 0
-13 -4 -16 -10z"/>
<path d="M3542 1243 c-13 -5 -7 -23 9 -23 6 0 8 4 5 9 -4 5 0 12 6 14 7 3 9 5
3 5 -5 0 -16 -2 -23 -5z"/>
<path d="M3885 1200 c-3 -5 -1 -10 4 -10 6 0 11 5 11 10 0 6 -2 10 -4 10 -3 0
-8 -4 -11 -10z"/>
<path d="M1920 1053 c-47 -19 -98 -47 -113 -62 l-28 -28 35 2 c20 0 41 6 48
13 15 15 3 15 -25 0 -20 -10 -21 -10 -8 5 7 10 21 17 30 17 10 0 38 14 64 30
26 17 54 30 62 30 13 0 31 18 24 24 -2 2 -42 -12 -89 -31z"/>
<path d="M3880 975 c0 -49 3 -66 13 -62 8 2 12 24 12 62 0 38 -4 60 -12 63
-10 3 -13 -14 -13 -63z"/>
<path d="M1760 994 c-16 -8 -19 -14 -9 -14 8 0 24 7 35 15 24 18 7 18 -26 -1z"/>
<path d="M1883 948 c-20 -10 -32 -28 -18 -28 12 0 55 24 55 32 0 10 -9 9 -37
-4z"/>
<path d="M5734 908 c-4 -6 0 -16 9 -23 10 -7 17 -20 17 -29 0 -9 5 -16 10 -16
6 0 10 9 10 19 0 11 4 21 10 23 5 2 -4 11 -20 20 -20 12 -32 13 -36 6z"/>
<path d="M5836 905 c4 -8 -1 -17 -10 -21 -9 -3 -16 -14 -16 -23 0 -11 7 -7 25
14 28 35 31 45 10 45 -9 0 -12 -6 -9 -15z"/>
<path d="M3862 869 c-7 -12 -11 -23 -9 -26 5 -4 147 -10 147 -6 0 2 -17 10
-37 18 -29 12 -44 13 -61 6 -32 -15 -34 -14 -27 9 8 26 3 25 -13 -1z"/>
<path d="M3897 796 c-14 -11 -18 -31 -20 -112 -1 -58 2 -101 8 -104 6 -3 11
35 13 103 2 86 6 107 17 107 8 0 15 5 15 10 0 14 -11 12 -33 -4z"/>
<path d="M5768 803 c6 -2 18 -2 25 0 6 3 1 5 -13 5 -14 0 -19 -2 -12 -5z"/>
<path d="M2835 790 c4 -6 11 -8 16 -5 14 9 11 15 -7 15 -8 0 -12 -5 -9 -10z"/>
<path d="M5728 783 c7 -3 16 -2 19 1 4 3 -2 6 -13 5 -11 0 -14 -3 -6 -6z"/>
<path d="M4105 540 c-3 -5 -1 -10 4 -10 6 0 11 5 11 10 0 6 -2 10 -4 10 -3 0
-8 -4 -11 -10z"/>
<path d="M5953 536 c-6 -8 -10 -16 -7 -19 7 -6 54 16 54 26 0 12 -34 7 -47 -7z"/>
</g>
</svg>
